/* XPM */
static char *start_button1706675087[] = {
/* columns rows colors chars-per-pixel */
"256 64 58 1 ",
"  c #414141",
". c #434343",
"X c gray27",
"o c #484848",
"O c #4C4C4C",
"+ c #535353",
"@ c #555555",
"# c #585858",
"$ c #5A5A5A",
"% c gray37",
"& c gray38",
"* c #676767",
"= c DimGray",
"- c gray43",
"; c #727272",
": c gray46",
"> c gray48",
", c #7C7C7C",
"< c gray50",
"1 c #636FFD",
"2 c #636FFF",
"3 c #818181",
"4 c gray53",
"5 c #888888",
"6 c gray56",
"7 c #929292",
"8 c #939393",
"9 c gray58",
"0 c #9A9A9A",
"q c #9F9F9F",
"w c #A2A2A2",
"e c gray65",
"r c gray67",
"t c #ACACAC",
"y c gray69",
"u c #B4B4B4",
"i c gray72",
"p c #BCBCBC",
"a c gray74",
"s c #C1C1C1",
"d c #C6C6C6",
"f c #C8C8C8",
"g c #CDCDCD",
"h c #D0D0D0",
"j c #D2D2D2",
"k c #D7D7D7",
"l c #DADADA",
"z c gainsboro",
"x c gray89",
"c c #E4E4E4",
"v c #E7E7E7",
"b c #E9E9E9",
"n c #EFEFEF",
"m c gray94",
"M c #F4F4F4",
"N c gray98",
"B c gray99",
"V c white",
/* pixels */
"2222222222222222222222222222222222222222222222222222222222222222222222222222222222222222222222222222222222222222222222222222222222222222222222222222222222222222222222222222222222222222222222222222222222222222222222222222222222222222222222222222222222222222",
"2222222222222222222222222222222222222222222222222222222222222222222222222222222222222222222222222222222222222222222222222222222222222222222222222222222222222222222222222222222222222222222222222222222222222222222222222222222222222222222222222222222222222222",
"22                                                                                                                                                                                                                                                            22",
"22                                                                                                                                                                                                                                                            22",
"22                                                                                                                                                                                                                                                            22",
"22                                                                                                                                                                                                                                                            22",
"22                                                                                                                                                                                                                                                            22",
"22                                                                                                                                                                                                                                                            22",
"22                                                                                                                                                                                                                                                            22",
"22                                                                                                                                                                                                                                                            22",
"22                                                                                                                                                                                                                                                            22",
"22                                                          %egbmNVMnla0@                                                                                                                                                                                     22",
"22                                                        *dNVVVVVVVVVVVVxt*      bVVVVVVVVVVVVVVVVVVVVVVVVVVVV-            jVVVVVMX              rVVVVVVVVVVVMnxdq+           bVVVVVVVVVVVVVVVVVVVVVVVVVVVV-                                                 22",
"22                                                       9MVVVVVVVVVVVVVVVVz      bVVVVVVVVVVVVVVVVVVVVVVVVVVVV-            MVVVVVV6              rVVVVVVVVVVVVVVVVMf&         nVVVVVVVVVVVVVVVVVVVVVVVVVVVV-                                                 22",
"22                                                      eVVVVVVVVVVVVVVVVVVz      bVVVVVVVVVVVVVVVVVVVVVVVVVVVV-           6VVVVVVVs              rVVVVVVVVVVVVVVVVVVMw        bVVVVVVVVVVVVVVVVVVVVVVVVVVVV-                                                 22",
"22                                                     6VVVVVVke>$O=4ykMVVVz      bVVVVVVVVVVVVVVVVVVVVVVVVVVVV-           sVVVVVVVn              rVVVVVVVVVVVVVVVVVVVVe       bVVVVVVVVVVVVVVVVVVVVVVVVVVVV-                                                 22",
"22                                                    OmVVVVv,         +rvVz                  mVVVV7                       nVVVNVVVV:             rVVVVv     O*7sMVVVVVV6                  MVVVV7                                                             22",
"22                                                    uVVVVb$             ef                  MVVVV7                      :VVVViVVVVu             rVVVVv         @jVVVVVv                  MVVVV9                                                             22",
"22                                                    bVVVV3                                  MVVVV9                      uVVVV=bVVVv             rVVVVv           kVVVVV0                 MVVVV7                                                             22",
"22                                                   =VVVVx                                   mVVVV7                      xVVVb dVVVV%            rVVVVv           =NVVVVg                 mVVVV9                                                             22",
"22                                                   0VVVVd                                   MVVVV7                     %VVVVf 9VVVVr            rVVVVv            lVVVVn                 mVVVV7                                                             22",
"22                                                   tVVVVi                                   MVVVV9                     rVVVV9 ONVVVl            rVVVVv            uVVVVN                 MVVVV9                                                             22",
"22                                                   iVVVVs                                   mVVVV7                     lVVVNO  zVVVNO           rVVVVv            rVVVVV@                MVVVV7                                                             22",
"22                                                   yVVVVz                                   MVVVV9                    oNVVVz   uVVVV0           rVVVVv            eVVVVV%                MVVVV9                                                             22",
"22                                                   qVVVVV=                                  MVVVV7                    9VVVVy   >VVVVg           rVVVVv            uVVVVV                 MVVVV7                                                             22",
"22                                                   =VVVVVx$                                 mVVVV9                    gVVVV>    mVVVm           rVVVVv            jVVVVn                 MVVVV9                                                             22",
"22                                                    bVVVVVneo                               MVVVV7                    mVVVm     gVVVV4          rVVVVv           +MVVVVf                 MVVVV7                                                             22",
"22                                                    eVVVVVVVmf9O                            MVVVV9                   4VVVVg     wVVVVa          rVVVVv           sVVVVV,                 mVVVV9                                                             22",
"22                                                    XzVVVVVVVVVVxa6X                        mVVVV7                   sVVVVw     $NVVVb          rVVVVv          iVVVVVg                  MVVVV7                                                             22",
"22                                                     %vVVVVVVVVVVVVNg3                      MVVVV7                   bVVVN$      vVVVV-         rVVVVv     X%4ybVVVVVv@                  MVVVV9                                                             22",
"22                                                      OfVVVVVVVVVVVVVVz:                    MVVVV9                  -VVVVv       aVVVVu         rVVVVVVVVVVVVVVVVVVVj@                   MVVVV7                                                             22",
"22                                                        3kVVVVVVVVVVVVVVr                   mVVVV7                  yVVVVa       5VVVVz         rVVVVVVVVVVVVVVVVNk6                     mVVVV9                                                             22",
"22                                                          =yzVVVVVVVVVVVVy                  MVVVV9                  zVVVV5       XMVVVV$        rVVVVVVVVVVVVVVVnqX                      mVVVV7                                                             22",
"22                                                             O7axNVVVVVVVV4                 mVVVV7                 $VVVVM         kVVVVw        rVVVVVVVVVVVVVVVVVx-                     MVVVV7                                                             22",
"22                                                                 +wzVVVVVVx                 MVVVV7                 wVVVVk         rVVVVk        rVVVVv     $4sNVVVVm-                    MVVVV8                                                             22",
"22                                                                    9MVVVVV3                MVVVV7                 jVVVVr         =VVVVMo       rVVVVv        =bVVVVvX                   MVVVV8                                                             22",
"22                                                                     ,NVVVVi                mVVVV7                oMVVVVVVVVVVVVVVVVVVVV7       rVVVVv         -MVVVVu                   MVVVV8                                                             22",
"22                                                                      dVVVVl                MVVVV9                7VVVVVVVVVVVVVVVVVVVVVf       rVVVVv          wVVVVM&                  MVVVV8                                                             22",
"22                                                                      7VVVVv                MVVVV7                fVVVVVVVVVVVVVVVVVVVVVm       rVVVVv           xVVVVf                  MVVVV8                                                             22",
"22                                                                      &VVVVn                mVVVV9                nVVVVVVVVVVVVVVVVVVVVVV,      rVVVVv           4VVVVV-                 mVVVV8                                                             22",
"22                                                                      @VVVVb                MVVVV7               ,VVVVn             gVVVVi      rVVVVv            lVVVVf                 MVVVV8                                                             22",
"22                                                                      ;VVVVx                MVVVV7               iVVVVf             qVVVVv      rVVVVv            6VVVVV-                MVVVV8                                                             22",
"22                                                                      eVVVVg                mVVVV9               vVVVVq             $VVVVV=     rVVVVv             xVVVVf                MVVVV8                                                             22",
"22                                                                      vVVVVe                MVVVV7              *VVVVV#              vVVVVt     rVVVVv             9VVVVV=               mVVVV8                                                             22",
"22                                                    x0               uVVVVV&                MVVVV7              tVVVVx               aVVVVz     rVVVVv              bVVVVf               mVVVV8                                                             22",
"22                                                    VVbu*          @fVVVVVf                 mVVVV9              zVVVVa               4VVVVV+    rVVVVv              wVVVVV=              MVVVV8                                                             22",
"22                                                    VVVVVxsq,=O@-0dMVVVVVm&                 mVVVV7             +NVVVV4                MVVVVq    rVVVVv              XnVVVVf              MVVVV8                                                             22",
"22                                                    VVVVVVVVVVVVVVVVVVVVN3                  MVVVV9             qVVVVMX                kVVVVg    rVVVVv               tVVVVV=             MVVVV8                                                             22",
"22                                                    VVVVVVVVVVVVVVVVVVVb3                   mVVVV7             hVVVVk                 eVVVVM    rVVVVv               OMVVVVf             mVVVV8                                                             22",
"22                                                    >abVVVVVVVVVVVVVVnyO                    MVVVV9             MVVVVt                 *VVVVV6   rVVVVv                uVVVVV=            MVVVV8                                                             22",
"22                                                       %0akbmNVNMnla6                                                                                                                                                                                       22",
"22                                                                                                                                                                                                                                                            22",
"22                                                                                                                                                                                                                                                            22",
"22                                                                                                                                                                                                                                                            22",
"22                                                                                                                                                                                                                                                            22",
"22                                                                                                                                                                                                                                                            22",
"22                                                                                                                                                                                                                                                            22",
"22                                                                                                                                                                                                                                                            22",
"22                                                                                                                                                                                                                                                            22",
"22                                                                                                                                                                                                                                                            22",
"21                                                                                                                                                                                                                                                            22",
"22                                                                                                                                                                                                                                                            22",
"2222222222222222222222222222222222222222222222222222222222222222222222222222222222222222222222222222222222222222222222222222222222222222222222222222222222222222222222222222222222222222222222222222222222222222222222222222222222222222222222222222222222222222",
"2222222222222222222222222222222222222222222222222222222222222222222222222222222222222222222222222222222222222222222222222222222222222222222222222222222222222222222222222222222222222222222222222222222222222222222222222222222222222222222222222222222222222222"
};
